<svg width="72" height="72" viewBox="0 0 72 72" fill="none" xmlns="http://www.w3.org/2000/svg">
<g clip-path="url(#clip0_2759_8443)">
<mask id="mask0_2759_8443" style="mask-type:luminance" maskUnits="userSpaceOnUse" x="0" y="0" width="72" height="72">
<path d="M72 0H0V72H72V0Z" fill="white"/>
</mask>
<g mask="url(#mask0_2759_8443)">
<mask id="mask1_2759_8443" style="mask-type:luminance" maskUnits="userSpaceOnUse" x="-1" y="-1" width="74" height="74">
<path d="M-0.25 -0.25H72.25V72.25H-0.25V-0.25Z" fill="white"/>
</mask>
<g mask="url(#mask1_2759_8443)">
<path d="M41.9877 5.69997C43.3439 8.59022 44.2649 11.7462 44.6571 15.0931C46.607 31.7341 34.7457 46.7993 18.1642 48.7422C14.6226 49.1571 11.1521 48.9398 7.86497 48.1794C6.20683 47.7958 4.67001 49.3944 5.47735 50.8926C11.7915 62.6091 24.7691 69.8929 38.7504 68.2547C57.0613 66.1092 70.1599 49.4726 68.0067 31.0957C66.3906 17.3037 56.6426 6.45111 44.1383 2.80176C43.887 2.72851 43.6453 2.7099 43.4185 2.73648C42.1705 2.88285 41.3765 4.39706 41.9877 5.69997Z" fill="url(#paint0_linear_2759_8443)"/>
</g>
</g>
</g>
<defs>
<linearGradient id="paint0_linear_2759_8443" x1="31.6386" y1="0.988931" x2="38.7054" y2="64.6284" gradientUnits="userSpaceOnUse">
<stop stop-color="#F9A63A"/>
<stop offset="0.22" stop-color="#F4A631"/>
<stop offset="0.45" stop-color="#EEA727"/>
<stop offset="0.72" stop-color="#EE9320"/>
<stop offset="1" stop-color="#EE7F18"/>
</linearGradient>
<clipPath id="clip0_2759_8443">
<rect width="72" height="72" fill="white"/>
</clipPath>
</defs>
</svg>
