<svg width="72" height="72" viewBox="0 0 72 72" fill="none" xmlns="http://www.w3.org/2000/svg">
<g clip-path="url(#clip0_2759_8547)">
<mask id="mask0_2759_8547" style="mask-type:luminance" maskUnits="userSpaceOnUse" x="0" y="0" width="72" height="72">
<path d="M72 0H0V72H72V0Z" fill="white"/>
</mask>
<g mask="url(#mask0_2759_8547)">
<mask id="mask1_2759_8547" style="mask-type:luminance" maskUnits="userSpaceOnUse" x="-1" y="-1" width="74" height="74">
<path d="M-0.25 -0.25H72.25V72.25H-0.25V-0.25Z" fill="white"/>
</mask>
<g mask="url(#mask1_2759_8547)">
<path d="M25.1498 12.9861C27.4527 14.2389 29.597 15.8791 31.4842 17.9028C40.8673 27.965 40.346 43.7013 30.3198 53.0509C28.1783 55.0478 25.7764 56.5918 23.2317 57.6874C21.9481 58.24 21.7086 60.045 22.9715 60.6437C32.8472 65.3252 44.9762 63.833 53.4301 55.9496C64.502 45.6249 65.0778 28.2471 54.7158 17.1353C46.9392 8.79583 35.2115 6.35601 25.1633 10.0227C24.9614 10.0964 24.7924 10.2016 24.6553 10.3295C23.9007 11.0333 24.1118 12.4213 25.1498 12.9861Z" fill="url(#paint0_linear_2759_8547)"/>
</g>
</g>
</g>
<defs>
<linearGradient id="paint0_linear_2759_8547" x1="16.0113" y1="14.9022" x2="51.6367" y2="53.5721" gradientUnits="userSpaceOnUse">
<stop stop-color="#EE7F18"/>
<stop offset="0.22" stop-color="#EE7F18"/>
<stop offset="0.45" stop-color="#EE7F18"/>
<stop offset="0.72" stop-color="#EE7F18"/>
<stop offset="1" stop-color="#EE7F18"/>
</linearGradient>
<clipPath id="clip0_2759_8547">
<rect width="72" height="72" fill="white"/>
</clipPath>
</defs>
</svg>
